<svg xmlns="http://www.w3.org/2000/svg" width="289.429" height="38.863" viewBox="0 0 289.429 38.863">
  <path d="M217.966 11.296c-2.628-2.4-4.921-3.635-8.612-3.635-8.332 0-14.482 7.325-14.482 15.657 0 9.618 5.7 15.545 14.035 15.545a12.6 12.6 0 008.947-3.635v2.908h9.114V8.22h-9zm-7.1 19.459c-4.194 0-6.822-3.411-6.822-7.549a6.9 6.9 0 017.157-7.157 7.043 7.043 0 017.1 7.381 7.2 7.2 0 01-7.436 7.325zm78.563-6.769c0-10.624-6.1-16.328-14.706-16.328-8.835 0-15.322 6.542-15.322 15.6 0 10.009 6.374 15.6 15.545 15.6a15.649 15.649 0 0013.979-7.772l-7.046-4.138c-1.566 2.013-3.523 4.138-6.486 4.138-3.411 0-6.207-1.734-6.99-5.257h21.026zm-20.69-4.473c1.118-2.8 2.8-4.25 5.871-4.25 2.852 0 4.362 1.342 5.48 4.25zm-86.62-11.852c-5.48 0-7.437 2.293-9.785 4.753a9.288 9.288 0 00-8.444-4.753c-5.033 0-8.388 4.473-8.388 4.473V8.22h-8.947a38.771 38.771 0 01-6.878 21.472l-5.871-3.8h6.6a.693.693 0 00.727-.671v-1.789c0-10.177-5.592-16.719-15.1-16.719a15.111 15.111 0 00-15.266 12.134.678.678 0 00.727.839h7.772a50.448 50.448 0 01-5.032 9.226 44.279 44.279 0 01-2.46 3.244 46.279 46.279 0 01-8.835-8.444l-1.789-2.237 11.127-13.029a.706.706 0 00-.5-1.174h-10.734a.688.688 0 00-.559.28l-7.046 9V.727A.74.74 0 0092.711 0h-8.835a.74.74 0 00-.727.727v7.27c0 5.2 1.789 8.164 5.144 12.469l1.006 1.4c-1.23 1.4-2.852 2.8-4.529 2.8-3.8 0-4.753-4.529-4.753-9.506V7.996a.74.74 0 00-.727-.727h-8.723a.74.74 0 00-.727.727v1.342a12.275 12.275 0 00-7.716-2.628c-8.891 0-13.084 6.71-15.937 15.433a21.555 21.555 0 01-.615-4.921c0-6.095-4.026-10.512-10.121-10.512-5.088 0-7.269 1.957-9.394 4.194a9.957 9.957 0 00-8.388-4.194 11.108 11.108 0 00-7.549 3.243V7.996a.74.74 0 00-.727-.727H.726a.7.7 0 00-.727.727v29.245a.7.7 0 00.727.727h8.893a.74.74 0 00.727-.727V21.249c0-3.131 1.454-4.977 4.026-4.977 2.4 0 3.075 1.007 3.075 3.8v17.167a.74.74 0 00.727.727h9a.74.74 0 00.727-.727v-15.99c0-3.075 1.566-4.977 4.026-4.977 2.8 0 3.3 1.342 3.3 3.914v17.111a.74.74 0 00.727.727h4.026c2.013 0 3.131-1.845 3.746-3.243a60.409 60.409 0 002.572-8c3.971 7.941 7.773 11.855 15.377 11.855a13.449 13.449 0 008.052-2.684v1.286a.693.693 0 00.671.727h8.947a.74.74 0 00.727-.727v-2.852c0-3.02.615-6.039 1.454-6.039s1.51 3.02 1.51 6.039v2.852a.693.693 0 00.671.727h9a.74.74 0 00.727-.727v-9.73l7.325 9.954a.688.688 0 00.559.28h4.473c1.51 0 3.243-.839 5.032-2.516.391-.391.783-.783 1.174-1.23a25.982 25.982 0 0014.259 4.641c5.759 0 10.177-2.4 13.811-7.045 4.642 3.075 6.6 4.026 6.487 6.319v.224h9.114V21.752c0-3.69 1.957-5.759 4.865-5.759 2.852 0 3.914 1.342 3.914 4.641v17.5h9.172V21.808c0-3.579 1.957-5.815 4.865-5.815 2.964 0 4.138 1.342 4.138 4.7v17.558h9.058V17.67c.005-5.648-3.63-10.009-9.561-10.009zM39.981 36.626h-3.3v-16.44c0-3.69-1.454-5.368-4.753-5.368-3.467 0-5.48 2.852-5.48 6.43v15.266h-7.549v-16.44c0-3.411-1.286-5.256-4.529-5.256-3.467 0-5.48 2.684-5.48 6.43v15.266H1.397V8.723h7.322v3.075a.719.719 0 001.286.447c.5-.5 3.243-4.138 7.661-4.138a8.266 8.266 0 017.605 4.306.6.6 0 00.5.391c.447 0 .559-.168.951-.559 3.02-3.02 4.473-4.138 8.723-4.138 5.424 0 8.667 3.914 8.667 9.114a21.954 21.954 0 001.342 7.381c-2.342 8.166-3.235 12.024-5.473 12.024zm29.916-16.328a.749.749 0 00.783.447.671.671 0 00.615-.671v-7.045a10.966 10.966 0 011.678 5.983c0 5.7-4.25 10.233-9.338 10.233-3.858 0-5.983-3.132-5.983-6.654a6.019 6.019 0 016.263-6.263c4.192 0 5.59 2.74 5.982 3.97zm22.087 16.216h-7.549v-2.128c0-3.131-.615-7.493-2.908-7.493-2.349 0-2.908 4.641-2.908 7.493v2.125h-7.493v-2.125a.715.715 0 00-1.23-.5 11.564 11.564 0 01-8.22 3.355c-4.194 0-6.822-1.062-9.338-3.8a27.615 27.615 0 01-5.368-8.891c2.74-9.338 6.6-16.439 15.154-16.439a10.31 10.31 0 017.716 3.131v6.095a7.942 7.942 0 00-5.927-2.46 7.48 7.48 0 00-7.661 7.716c0 4.529 2.908 8.108 7.381 8.108 5.983 0 10.792-5.368 10.792-11.687a12.313 12.313 0 00-3.132-8.332V8.725h7.27v6.43c0 5.983 1.566 10.96 6.207 10.96 2.125 0 3.97-1.566 5.368-3.075l1.845 2.516zm0-13.364l-.895-1.23.895-1.174zm0-4.753l-1.789 2.293-.783-1.062c-3.411-4.585-4.865-6.766-4.865-11.631V1.454h7.437zm13.812 17.889h-4.138l-8.22-11.184v-6.207l7.941-10.177h8.835L99.702 20.964a.757.757 0 000 .951l2.125 2.684a46.4 46.4 0 009 8.612c-1.9 2.017-3.633 3.075-5.031 3.075zm20.466.951a24.179 24.179 0 01-13.253-4.306 43.34 43.34 0 002.4-3.243 48.016 48.016 0 005.368-10.009h10.513a.723.723 0 00.671-.951c-1.174-3.187-3.02-4.585-5.983-4.585-3.02 0-4.809 1.174-6.151 4.138h-7.437a13.727 13.727 0 0113.644-10.177c8.835 0 13.7 6.151 13.7 15.321v1.007h-19.903a.781.781 0 00-.671.895c.783 3.579 3.635 5.7 7.549 5.7 2.908 0 4.921-1.845 6.486-3.8l5.648 3.635c-3.299 4.087-7.493 6.379-12.581 6.379zm-4.809-18.951a4.4 4.4 0 014.529-2.74 4.252 4.252 0 014.25 2.74zm10.96 7.6c-1.454 1.957-3.187 3.691-5.7 3.691-2.908 0-5.033-1.342-5.928-3.691zm14.147 8.587a26.818 26.818 0 00-5.648-4 42.59 42.59 0 005.648-12.036zM260.128 8.217h-10.96l-8.556 10.792V.839h-9.059v37.3h9.059V26.057c.671.895 8.947 12.078 8.947 12.078h11.407l-12.637-16.1z" fill="#d8d9be"/>
</svg>
